# xmcd
#
# Track frame offsets:
#	150
#	20962
#	42350
#	60827
#	76760
#	97572
#	118960
#	137437
#
# Disc length: 2040 seconds
#
# Revision: 2
# Processed by: cddbd v1.5.2PL0 Copyright (c) Steve Scherf et al.
# Submitted via: EasyCDDAExtractor 11.6.0.1
#
DISCID=5907f608
DTITLE=嵐 - 迷宮ラブソング
DYEAR=2011
DGENRE=Pop
TTITLE0=迷宮ラブソング
TTITLE1=together,forever
TTITLE2=うたかた
TTITLE3=wanna be...
TTITLE4=迷宮ラブソング(カラオケ)
TTITLE5=together,forever(カラオケ)
TTITLE6=うたかた(カラオケ)
TTITLE7=wanna be...(カラオケ)
EXTD=
EXTT0=
EXTT1=
EXTT2=
EXTT3=
EXTT4=
EXTT5=
EXTT6=
EXTT7=
PLAYORDER=
